HIERARCHY
ROOT Hip
{
    OFFSET 0.0 0.0 0.0
    CHANNELS 6 Xposition Yposition Zposition Zrotation Xrotation Yrotation
    JOINT RightHip
    {
        OFFSET -10.135560989379883 0.0 0.0
        CHANNELS 3 Zrotation Xrotation Yrotation
        JOINT RightKnee
        {
            OFFSET 0.0 0.0 -33.17281723022461
            CHANNELS 3 Zrotation Xrotation Yrotation
            JOINT RightAnkle
            {
                OFFSET 0.0 0.0 -38.64624786376953
                CHANNELS 3 Zrotation Xrotation Yrotation
                End Site
                {
                    OFFSET 0.0 -15.458499908447266 0.0
                }
            }
        }
    }
    JOINT LeftHip
    {
        OFFSET 10.135560989379883 0.0 0.0
        CHANNELS 3 Zrotation Xrotation Yrotation
        JOINT LeftKnee
        {
            OFFSET 0.0 0.0 -33.17281723022461
            CHANNELS 3 Zrotation Xrotation Yrotation
            JOINT LeftAnkle
            {
                OFFSET 0.0 0.0 -38.64624786376953
                CHANNELS 3 Zrotation Xrotation Yrotation
                End Site
                {
                    OFFSET 0.0 -15.458499908447266 0.0
                }
            }
        }
    }
    JOINT Spine
    {
        OFFSET 0.0 0.0 38.23549270629883
        CHANNELS 3 Zrotation Xrotation Yrotation
        JOINT Thorax
        {
            OFFSET 0.0 0.0 12.457524299621582
            CHANNELS 3 Zrotation Xrotation Yrotation
            JOINT Neck
            {
                OFFSET 0.0 0.0 0.0
                CHANNELS 3 Zrotation Xrotation Yrotation
                End Site
                {
                    OFFSET 0.0 0.0 0.0
                }
            }
            JOINT LeftShoulder
            {
                OFFSET 18.14773178100586 0.0 0.0
                CHANNELS 3 Zrotation Xrotation Yrotation
                JOINT LeftElbow
                {
                    OFFSET 27.886817932128906 0.0 0.0
                    CHANNELS 3 Zrotation Xrotation Yrotation
                    JOINT LeftWrist
                    {
                        OFFSET 22.842937469482422 0.0 0.0
                        CHANNELS 3 Zrotation Xrotation Yrotation
                        End Site
                        {
                            OFFSET 9.137175559997559 0.0 0.0
                        }
                    }
                }
            }
            JOINT RightShoulder
            {
                OFFSET -18.14773178100586 0.0 0.0
                CHANNELS 3 Zrotation Xrotation Yrotation
                JOINT RightElbow
                {
                    OFFSET -27.886817932128906 0.0 0.0
                    CHANNELS 3 Zrotation Xrotation Yrotation
                    JOINT RightWrist
                    {
                        OFFSET -22.842937469482422 0.0 0.0
                        CHANNELS 3 Zrotation Xrotation Yrotation
                        End Site
                        {
                            OFFSET -9.137175559997559 0.0 0.0
                        }
                    }
                }
            }
        }
    }
}
MOTION
Frames: 10
Frame Time: 0.03333333333333333
0.890869140625 63.99767303466797 -54.1944580078125 107.24480405533876 -62.08824232771447 106.66899314463564 0.10384196171009101 -38.44590412701618 12.473730313544594 24.232530802872805 60.76922686511739 -37.49323825055861 -3.1805546814635176e-15 0.0 0.0 -0.5831307628646759 -45.357784879757716 -7.987061118114488 -26.25345623299908 72.96802057982522 28.01488547406738 -3.1805546814635168e-15 0.0 0.0 -0.08892074903233345 -17.880841637029704 1.861297101413991 -4.7219222092740765 -7.351546079231431e-07 2.929122978834255e-06 -8.118566021224822 19.00895979043368 6.062914408252532 -42.410085726829905 40.321963723147896 96.80548981773019 -64.18561705581864 -8.740773664709748e-07 4.87978311715478e-06 6.3611093629270335e-15 -1.5902773407317588e-15 -6.3611093629270335e-15 42.93820072922613 31.67237514168367 -96.1387599118458 62.285877119818814 -6.116551663915921e-08 8.047294940278181e-07 6.361109362927033e-15 1.6896696745274926e-15 -3.1805546814635164e-15
0.7888107299804688 63.84747314453125 -54.434112548828125 104.25660798682685 -63.53882983062098 103.82755490450435 0.9139047607890484 -40.93074921731266 12.272292606326843 23.002239858884504 62.75143666615013 -35.68058540080597 -3.180554681463516e-15 -6.361109362927032e-15 1.5902773407317578e-15 0.5052085289747686 -47.42717869366823 -8.133202182098309 -31.57860115118189 72.69714594088764 33.37005393702559 0.0 -6.3611093629270335e-15 0.0 0.238014237687032 -18.27943488918888 1.734181155905075 -3.846653065288706 1.0364965982549733e-06 -1.4706523598473523e-06 -7.903054968567385 20.376989280630198 5.92403763601923 -41.5447780434322 40.5637243201891 95.58258954184346 -65.713527279481 5.515500038020853e-06 -4.563945659606994e-06 -3.180554681463516e-15 -3.1805546814635168e-15 6.361109362927033e-15 42.36969805557298 32.01681023388951 -95.77954076869568 63.815224693974876 4.702228268022848e-07 6.40466143997212e-07 -1.3793457181406746e-33 -4.969616689786745e-17 -3.1805546814635168e-15
0.6671524047851562 63.650489807128906 -54.70147705078125 99.09877345346074 -65.54926001852456 99.05119619149141 2.2592581815355253 -44.356127895078366 12.179873645648176 20.837250749044184 64.95767495208267 -33.11857589255542 -3.1805546814635168e-15 3.9756933518293955e-16 1.5902773407317584e-15 1.5471103758607683 -50.25293127318321 -8.758531873046529 -37.202236740269946 71.84825952085359 39.38475562409107 1.5902773407317588e-15 -1.1034765745125397e-32 -7.951386703658794e-16 0.6025073897452846 -18.840907531631505 1.5223611877951115 -2.6553735851273528 -2.213119553835876e-06 1.4698409255722177e-07 -7.5445284994774 21.631715901904247 5.573874751354854 -40.82359645407164 40.69864824685021 94.08527622917154 -67.55412922091824 1.7160532029613282e-06 2.7831972212055625e-06 -3.1805546814635168e-15 4.770832022195275e-15 6.3611093629270335e-15 43.19798238161093 31.67202772868592 -95.40747472360843 65.33147965862369 -2.900705338402475e-06 2.1485906462028735e-06 0.0 -1.5902773407317584e-15 0.0
0.5427398681640625 63.44537353515625 -54.9681396484375 92.57558867438084 -67.3987218016751 93.04153893943874 3.391850989601026 -48.040904529566255 11.943116714597622 18.935905859499197 66.85466519685195 -30.65777838774051 8.827812596100317e-32 -6.361109362927035e-15 1.5902773407317588e-15 2.2295867438327726 -53.12637116714195 -9.789478198440875 -41.65611446084365 70.77226657321962 44.470405147887554 1.5902773407317582e-15 6.5598940305185035e-15 1.5902773407317582e-15 0.7854203453629591 -18.616262644570668 1.1547998421111139 -1.2238206473500577 1.0951909725171676e-06 9.711203588308727e-07 -7.01029208062458 22.793522604478973 5.080336816229452 -40.41681923512633 39.896346857495935 92.14915554651358 -69.13995483378287 -4.801568883740593e-06 -4.872278750671802e-07 -6.3611093629270335e-15 -1.5902773407317588e-15 6.3611093629270335e-15 43.9047225127592 30.88486958011211 -94.3760758154644 67.22015799230353 -1.3312000896913803e-06 1.4723102764838189e-08 4.4139062980501586e-32 -1.5902773407317584e-15 3.1805546814635168e-15
0.4254608154296875 63.275909423828125 -55.203887939453125 83.37751976400648 -69.18489865410399 84.59153944053202 4.199405697846004 -52.31304695092743 11.179291125575393 16.287403040900994 68.6641722654071 -27.140525841309394 8.827812596100317e-32 -6.3611093629270335e-15 1.5902773407317584e-15 2.525262162228082 -56.23145858675487 -11.367374997016153 -44.259304849680284 69.31727886763056 47.92836441689108 -1.5902773407317582e-15 -2.2069531490250793e-32 1.5902773407317582e-15 0.8501240946872219 -19.137234265793968 0.6888864088307837 0.3261716638003208 2.8438599900355884e-06 -5.740066089517481e-07 -6.265316394138623 24.158598758089557 4.497965845325075 -39.60664616610453 39.46043870113091 90.39265121408086 -70.92217336021992 -2.052442346808124e-06 1.3568864125992173e-06 0.0 0.0 0.0 45.76054002001625 30.278863337714682 -93.76531389220561 69.31618437094637 2.241861867564882e-06 -2.8454204941291233e-06 -6.361109362927033e-15 -4.9696166897867443e-17 -2.758691436281349e-33
0.2910919189453125 63.141944885253906 -55.48374938964844 70.35518619110607 -70.25066368188376 72.65829682397761 3.952134967949345 -57.80222293545216 9.448057077934891 15.041989626818744 70.51627093078389 -24.481727472970768 -1.5902773407317582e-15 -1.9878466759146977e-16 -2.758691436281349e-33 2.11429959614474 -59.961530024338195 -13.680012174361478 -45.990681502855 67.5144425734817 50.685985353482884 7.951386703658794e-16 6.3611093629270335e-15 -2.3854160110976376e-15 0.6660958083670045 -19.850533376236402 0.07834976897105607 2.6630868428953174 5.210276129208095e-06 -1.1256098110801587e-06 -5.556256305181075 25.267111701123163 3.725060609961194 -39.14139211389235 38.54324102390649 88.14774433678811 -72.73245913581943 -1.1678069391880351e-06 4.737081738669175e-06 -3.1805546814635168e-15 0.0 0.0 47.0664046606488 29.725773310199006 -92.76262985079127 71.868194876583 -3.903337896053709e-07 2.7380114337452265e-06 0.0 0.0 0.0
0.16858673095703125 62.97807312011719 -55.726043701171875 56.674228238988015 -70.1943999098521 60.23719672207503 2.379730827834865 -63.37193403773791 6.4001126631432745 12.741836067972221 72.4462630806587 -20.586140953628867 4.4139062980501586e-32 6.3611093629270335e-15 -7.951386703658792e-16 1.062902232966016 -63.78706415468794 -16.572648156591892 -47.00066481799751 66.03358352970615 52.64598191498702 -1.5902773407317584e-15 5.517382872562698e-33 -3.975693351829396e-16 0.3167697593455295 -20.274005141339483 -0.5188246334493732 5.211923576301844 1.2306162585652348e-06 4.3800816767779895e-07 -4.4501088129166355 26.718827717091344 2.6814926304102578 -38.90813637064036 37.46650682624728 85.91872288841195 -74.61225056893562 -6.370950730097862e-06 3.571264886066742e-06 -3.1805546814635168e-15 -3.1805546814635168e-15 -8.827812596100317e-32 48.397007995137635 29.469642858340855 -92.01928217041556 74.79314820715656 -6.499155815400337e-07 2.809773163200778e-06 6.361109362927033e-15 0.0 0.0
0.0178985595703125 62.633445739746094 -55.951995849609375 43.04300053837892 -67.96852827038889 48.255613722667746 -1.1301839521074184 -69.89884500741606 1.9148112895438487 11.223341067903204 74.02340837549404 -17.817540586070596 -1.5902773407317584e-15 0.0 0.0 -2.8588574640919737 -68.8176390806921 -21.591180014089694 -47.26956645351344 65.38820206374737 53.991373658221264 -1.5902773407317582e-15 -9.939233379573485e-17 -1.9878466759146976e-15 -0.28489200240083346 -20.569112215177583 -0.914783733686318 6.762916596503213 2.1891428751986433e-06 -5.531563908539939e-07 -3.075442725824456 27.342484724227152 1.4052139747586383 -38.63624025980213 36.067071923403 83.72558823388103 -76.53831626073915 -4.046983025028479e-07 1.3022252441823752e-06 0.0 -3.1805546814635168e-15 0.0 50.38712791332824 28.34990784670002 -90.22789530560082 77.31429953325451 -6.114171433095948e-07 1.823780703882115e-06 -6.361109362927032e-15 -1.7655625192200634e-31 3.180554681463516e-15
-0.1138916015625 62.189483642578125 -56.118927001953125 33.084335442109854 -64.28938694423934 40.013892955951135 -9.554462753988545 -76.54425516667739 -6.954234728769743 11.382445723955136 75.58193221067528 -16.735312426771994 3.1805546814635176e-15 -1.2821611059649805e-14 3.5587119528029404e-31 -11.304165106822326 -73.83579197153504 -30.484538972299585 -47.17263655870108 65.14001191343836 55.11160770529134 1.5902773407317584e-15 9.939233379573492e-17 1.987846675914698e-15 -1.01819062819125 -20.22966804875348 -1.0070595133220814 7.895710365394405 -2.6018697775253434e-06 2.6264523910649403e-06 -1.9523778285067006 27.112612074793276 0.27074969673301613 -37.942386825407716 34.48798098559907 81.17905839721496 -78.87335344562489 -1.7887355675851273e-06 1.7600312764320363e-07 -3.1805546814635168e-15 3.1805546814635168e-15 6.3611093629270335e-15 51.642628675278935 27.330669839133865 -87.90591845975982 80.1972270522738 -1.4935725764059978e-07 -8.004060401276513e-07 0.0 0.0 1.590277340731758e-15
-0.232696533203125 61.76502990722656 -56.25750732421875 26.276810657558684 -59.891748377464104 34.90735703921911 -32.60433573911989 -82.45055232439583 -30.136642619375493 13.117033500726382 77.2666916192047 -17.332469113008322 0.0 -6.3611093629270335e-15 0.0 -26.892841506552003 -78.36478620323281 -46.04316665643028 -47.56198826849971 65.09649372708792 56.37177266663641 -1.590277340731758e-15 -6.361109362927032e-15 3.975693351829394e-16 -1.6577973713130787 -19.41621326994118 -0.9540726217589555 8.391936284568427 3.576304682278523e-06 1.7458947403061246e-06 -1.0692755601101545 26.463311748172472 -0.5988822448614832 -38.12834216446519 32.22660475770228 78.80034528820089 -80.41234606229085 -1.0727068557852585e-06 2.4998595839212432e-06 3.1805546814635168e-15 0.0 0.0 52.16116525235237 26.330555634635918 -84.8281264431912 83.06249418686873 -6.858684211419873e-07 1.2970433953652914e-06 1.1034765745125397e-32 7.951386703658792e-16 -1.5902773407317584e-15
